<?xml version="1.0" encoding="UTF-8" standalone="no" ?>
<!DOCTYPE svg PUBLIC "-//W3C//DTD SVG 1.1//EN" "http://www.w3.org/Graphics/SVG/1.1/DTD/svg11.dtd">
<svg xmlns="http://www.w3.org/2000/svg" xmlns:xlink="http://www.w3.org/1999/xlink" version="1.1" width="500" height="500" viewBox="0 0 500 500" xml:space="preserve">
<desc>Created with Fabric.js 3.6.3</desc>
<defs>
</defs>
<g transform="matrix(1 0 0 1 250 250)"  >
<rect style="stroke: none; stroke-width: 1; stroke-dasharray: none; stroke-linecap: butt; stroke-dashoffset: 0; stroke-linejoin: miter; stroke-miterlimit: 4; fill: rgb(255,255,255); fill-rule: nonzero; opacity: 1;"  x="-250" y="-250" rx="0" ry="0" width="500" height="500" />
</g>
<g transform="matrix(1 0 0 1 241.99999999775457 317.6313041065853)" style=""  ><path fill="#193441" opacity="1" d=""/><path fill="#193441" opacity="1" d="M-161.46 3.80L-161.46 13.67Q-161.46 16.71-163.30 18.26Q-165.13 19.80-167.60 19.80L-167.60 19.80Q-170.07 19.80-171.87 18.26Q-173.67 16.71-173.67 13.67L-173.67 13.67L-173.67-18.46Q-173.67-24.66-167.60-24.66L-167.60-24.66L-146.73-24.66Q-143.82-24.66-142.21-22.82Q-140.59-20.99-140.59-18.46L-140.59-18.46Q-140.59-15.93-142.21-14.09Q-143.82-12.26-146.73-12.26L-146.73-12.26L-161.46-12.26L-161.46-7.96L-149.45-7.96Q-146.60-7.96-145.08-6.22Q-143.57-4.48-143.57-2.08L-143.57-2.08Q-143.57 0.33-145.08 2.06Q-146.60 3.80-149.45 3.80L-149.45 3.80L-161.46 3.80Z"/><path fill="#193441" opacity="1" d="M-111.63-12.13L-116.12-12.13Q-118.71-12.13-120.61-11.31Q-122.51-10.49-123.80-9.13Q-125.10-7.77-125.73-6.00Q-126.36-4.23-126.36-2.39L-126.36-2.39Q-126.36-0.50-125.73 1.31Q-125.10 3.11-123.80 4.47Q-122.51 5.83-120.61 6.68Q-118.71 7.54-116.18 7.54L-116.18 7.54L-111.63 7.54Q-110.05 7.54-108.91 8.07Q-107.77 8.61-107.01 9.46Q-106.25 10.32-105.87 11.42Q-105.49 12.53-105.49 13.67L-105.49 13.67Q-105.49 16.14-107.01 18.00Q-108.53 19.87-111.63 19.87L-111.63 19.87L-116.12 19.87Q-121.62 19.87-125.79 18.00Q-129.97 16.14-132.72 13.04Q-135.47 9.94-136.86 6.02Q-138.25 2.10-138.25-2.08L-138.25-2.08Q-138.25-6.25-136.83-10.33Q-135.41-14.41-132.50-17.57Q-129.59-20.74-125.29-22.70Q-120.99-24.66-115.17-24.66L-115.17-24.66L-111.63-24.66Q-110.11-24.66-108.94-24.12Q-107.77-23.58-106.98-22.70Q-106.19-21.81-105.78-20.70Q-105.37-19.60-105.37-18.40L-105.37-18.40Q-105.37-17.19-105.78-16.06Q-106.19-14.92-106.98-14.06Q-107.77-13.21-108.94-12.67Q-110.11-12.13-111.63-12.13L-111.63-12.13Z"/><path fill="#193441" opacity="1" d="M-81.52-6.44L-84.75 1.59L-78.80 1.59L-81.52-6.44ZM-73.68 16.14L-75.45 11.27L-88.61 11.27L-90.57 16.14Q-91.45 18.16-92.91 19.14Q-94.36 20.12-95.94 20.12L-95.94 20.12Q-97.21 20.12-98.38 19.71Q-99.55 19.30-100.50 18.54Q-101.45 17.78-102.01 16.71Q-102.58 15.63-102.58 14.30L-102.58 14.30Q-102.58 12.78-102.14 11.84L-102.14 11.84L-87.09-21.18Q-86.33-22.82-85.13-23.83Q-83.93-24.85-81.40-24.85L-81.40-24.85Q-78.99-24.85-77.76-23.83Q-76.53-22.82-75.83-21.11L-75.83-21.11L-62.11 11.84Q-61.66 12.97-61.66 14.30L-61.66 14.30Q-61.66 15.57-62.23 16.64Q-62.80 17.72-63.72 18.48Q-64.64 19.24-65.84 19.68Q-67.04 20.12-68.24 20.12L-68.24 20.12Q-70.14 20.12-71.56 19.14Q-72.98 18.16-73.68 16.14L-73.68 16.14Z"/><path fill="#193441" opacity="1" d="M-25.74 18.41L-27.01 17.21Q-29.66 18.67-32.48 19.49Q-35.29 20.31-38.52 20.31L-38.52 20.31Q-43.26 20.31-47.37 18.54Q-51.48 16.77-54.58 13.67Q-57.68 10.57-59.45 6.46Q-61.22 2.35-61.22-2.39L-61.22-2.39Q-61.22-7.14-59.45-11.25Q-57.68-15.36-54.58-18.46Q-51.48-21.56-47.37-23.33Q-43.26-25.10-38.52-25.10L-38.52-25.10Q-33.77-25.10-29.63-23.33Q-25.49-21.56-22.42-18.46Q-19.35-15.36-17.55-11.25Q-15.75-7.14-15.75-2.39L-15.75-2.39Q-15.75 1.02-16.63 3.90Q-17.52 6.78-19.10 9.43L-19.10 9.43L-17.96 10.63Q-17.08 11.58-16.70 12.56Q-16.32 13.54-16.25 14.43L-16.25 14.43Q-16.25 15.57-16.73 16.58Q-17.20 17.59-17.99 18.38Q-18.78 19.17-19.80 19.65Q-20.81 20.12-21.95 20.12L-21.95 20.12Q-23.97 20.12-25.74 18.41L-25.74 18.41ZM-49.14-2.20L-49.14-2.20Q-49.14 0.01-48.32 1.97Q-47.50 3.93-46.04 5.38Q-44.59 6.84-42.63 7.66Q-40.67 8.48-38.45 8.48L-38.45 8.48Q-37.82 8.48-37.16 8.42Q-36.49 8.36-35.92 8.23L-35.92 8.23L-41.30 2.85Q-42.18 1.97-42.53 1.05Q-42.88 0.14-42.88-0.94L-42.88-0.94Q-42.88-2.08-42.41-3.09Q-41.93-4.10-41.17-4.86Q-40.41-5.62-39.40-6.09Q-38.39-6.57-37.25-6.57L-37.25-6.57Q-36.18-6.57-35.29-6.22Q-34.41-5.87-33.52-4.99L-33.52-4.99L-28.02 0.51Q-27.64-0.69-27.64-2.20L-27.64-2.20Q-27.64-4.42-28.49-6.38Q-29.35-8.34-30.83-9.79Q-32.32-11.25-34.28-12.10Q-36.24-12.96-38.45-12.96L-38.45-12.96Q-40.67-12.96-42.63-12.10Q-44.59-11.25-46.04-9.79Q-47.50-8.34-48.32-6.38Q-49.14-4.42-49.14-2.20Z"/><path fill="#193441" opacity="1" d="M24.67-18.77L24.67 0.77Q24.67 20.31 6.77 20.31L6.77 20.31Q-11.38 20.31-11.38 0.77L-11.38 0.77L-11.38-18.77Q-11.38-21.68-9.55-23.27Q-7.72-24.85-5.25-24.85L-5.25-24.85Q-2.72-24.85-0.92-23.27Q0.89-21.68 0.89-18.77L0.89-18.77L0.89 2.67Q0.89 8.10 6.64 8.10L6.64 8.10Q12.40 8.10 12.40 2.67L12.40 2.67L12.40-18.77Q12.40-20.23 12.90-21.37Q13.41-22.51 14.23-23.27Q15.05-24.02 16.16-24.44Q17.27-24.85 18.47-24.85L18.47-24.85Q21.00-24.85 22.83-23.27Q24.67-21.68 24.67-18.77L24.67-18.77Z"/><path fill="#193441" opacity="1" d="M47.37-6.44L44.15 1.59L50.09 1.59L47.37-6.44ZM55.21 16.14L53.44 11.27L40.29 11.27L38.33 16.14Q37.44 18.16 35.99 19.14Q34.53 20.12 32.95 20.12L32.95 20.12Q31.69 20.12 30.52 19.71Q29.35 19.30 28.40 18.54Q27.45 17.78 26.88 16.71Q26.31 15.63 26.31 14.30L26.31 14.30Q26.31 12.78 26.75 11.84L26.75 11.84L41.80-21.18Q42.56-22.82 43.77-23.83Q44.97-24.85 47.50-24.85L47.50-24.85Q49.90-24.85 51.13-23.83Q52.37-22.82 53.06-21.11L53.06-21.11L66.79 11.84Q67.23 12.97 67.23 14.30L67.23 14.30Q67.23 15.57 66.66 16.64Q66.09 17.72 65.17 18.48Q64.26 19.24 63.06 19.68Q61.85 20.12 60.65 20.12L60.65 20.12Q58.75 20.12 57.33 19.14Q55.91 18.16 55.21 16.14L55.21 16.14Z"/><path fill="#193441" opacity="1" d="M89.81 19.87L77.16 19.87Q71.09 19.87 71.09 13.67L71.09 13.67L71.09-18.77Q71.09-21.68 72.89-23.27Q74.69-24.85 77.16-24.85L77.16-24.85Q79.63-24.85 81.46-23.27Q83.29-21.68 83.29-18.77L83.29-18.77L83.29 7.54L89.81 7.54Q92.65 7.54 94.14 9.34Q95.63 11.14 95.63 13.67L95.63 13.67Q95.63 16.20 94.14 18.03Q92.65 19.87 89.81 19.87L89.81 19.87Z"/><path fill="#193441" opacity="1" d="M111.12-18.77L111.12 13.99Q111.12 17.02 109.29 18.57Q107.45 20.12 104.99 20.12L104.99 20.12Q102.46 20.12 100.65 18.57Q98.85 17.02 98.85 13.99L98.85 13.99L98.85-18.77Q98.85-21.68 100.65-23.27Q102.46-24.85 104.99-24.85L104.99-24.85Q107.45-24.85 109.29-23.27Q111.12-21.68 111.12-18.77L111.12-18.77Z"/><path fill="#193441" opacity="1" d="M139.01-4.61L139.01-19.03Q139.01-21.87 140.75-23.36Q142.49-24.85 144.96-24.85L144.96-24.85Q147.30-24.85 149.04-23.36Q150.78-21.87 150.78-19.03L150.78-19.03L150.78 13.99Q150.78 15.44 150.27 16.58Q149.76 17.72 148.97 18.51Q148.18 19.30 147.14 19.71Q146.10 20.12 144.96 20.12L144.96 20.12Q143.44 20.12 141.99 19.36Q140.53 18.60 139.46 16.96L139.46 16.96L127.94-0.18L127.94 14.30Q127.94 17.15 126.21 18.63Q124.47 20.12 122.00 20.12L122.00 20.12Q119.66 20.12 117.95 18.63Q116.24 17.15 116.24 14.30L116.24 14.30L116.24-18.77Q116.24-20.17 116.72-21.30Q117.19-22.44 118.02-23.23Q118.84-24.02 119.85-24.44Q120.86-24.85 122.00-24.85L122.00-24.85Q123.58-24.85 125.04-24.12Q126.49-23.39 127.57-21.75L127.57-21.75L139.01-4.61Z"/><path fill="#193441" opacity="1" d="M168.17 3.49L168.17 13.99Q168.17 17.02 166.33 18.57Q164.50 20.12 162.03 20.12L162.03 20.12Q159.50 20.12 157.70 18.57Q155.90 17.02 155.90 13.99L155.90 13.99L155.90-18.77Q155.90-21.68 157.70-23.27Q159.50-24.85 162.03-24.85L162.03-24.85Q164.50-24.85 166.33-23.27Q168.17-21.68 168.17-18.77L168.17-18.77L168.17-8.28L178.22-22.51Q179.11-23.83 180.22-24.34Q181.32-24.85 182.97-24.85L182.97-24.85Q186.00-24.85 187.68-23.11Q189.36-21.37 189.36-18.71L189.36-18.71Q189.36-17.64 189.04-16.62Q188.72-15.61 187.96-14.85L187.96-14.85L177.66-3.22L188.03 10.06Q189.48 11.90 189.48 13.92L189.48 13.92Q189.48 16.77 187.71 18.44Q185.94 20.12 183.09 20.12L183.09 20.12Q181.70 20.12 180.47 19.55Q179.24 18.98 178.35 17.72L178.35 17.72L168.17 3.49Z"/></g><g transform="matrix(0.3286962619837072 -1.0217611360053678 1.0217611360053684 0.3286962619837076 250.00000000000006 191.4559960276601)"  >
<g style=""   >
		<g transform="matrix(1.1204384654154556 0 0 1.1204384654154556 -10.091012139927798 11.67006888483489)"  >
<circle style="stroke: none; stroke-width: 0; stroke-dasharray: none; stroke-linecap: butt; stroke-dashoffset: 0; stroke-linejoin: miter; stroke-miterlimit: 4; fill: rgb(0,76,242); fill-rule: evenodd; opacity: 0.8;"  cx="0" cy="0" r="47.0059" />
</g>
		<g transform="matrix(0.7023644111559573 0 0 0.7023644111559573 20.99094185883972 -10.340111964735698)"  >
<circle style="stroke: none; stroke-width: 0; stroke-dasharray: none; stroke-linecap: butt; stroke-dashoffset: 0; stroke-linejoin: miter; stroke-miterlimit: 4; fill: rgb(251,165,54); fill-rule: evenodd; opacity: 0.8;"  cx="0" cy="0" r="47.0059" />
</g>
		<g transform="matrix(0.1640206609377625 0 0 0.1640206609377625 0.9140782848575064 -56.627348560332905)"  >
<circle style="stroke: none; stroke-width: 0; stroke-dasharray: none; stroke-linecap: butt; stroke-dashoffset: 0; stroke-linejoin: miter; stroke-miterlimit: 4; fill: rgb(255,83,98); fill-rule: evenodd; opacity: 0.7;"  cx="0" cy="0" r="47.0059" />
</g>
		<g transform="matrix(0.8863169950301366 0 0 0.8863169950301366 -25.328172179880866 -1.6932552024043588)"  >
<circle style="stroke: none; stroke-width: 0; stroke-dasharray: none; stroke-linecap: butt; stroke-dashoffset: 0; stroke-linejoin: miter; stroke-miterlimit: 4; fill: rgb(99,25,195); fill-rule: evenodd; opacity: 0.8;"  cx="0" cy="0" r="47.0059" />
</g>
		<g transform="matrix(0.6470430043256643 0 0 0.6470430043256643 13.674042016607682 31.322016071951435)"  >
<circle style="stroke: none; stroke-width: 0; stroke-dasharray: none; stroke-linecap: butt; stroke-dashoffset: 0; stroke-linejoin: miter; stroke-miterlimit: 4; fill: rgb(255,83,98); fill-rule: evenodd; opacity: 0.8;"  cx="0" cy="0" r="47.0059" />
</g>
		<g transform="matrix(0.07846229053274655 0 0 -0.07846229053274655 -76.90763257612397 11.670068884834874)"  >
<circle style="stroke: none; stroke-width: 0; stroke-dasharray: none; stroke-linecap: butt; stroke-dashoffset: 0; stroke-linejoin: miter; stroke-miterlimit: 4; fill: rgb(99,25,195); fill-rule: evenodd; opacity: 0.7;"  cx="0" cy="0" r="47.0059" />
</g>
		<g transform="matrix(0.08973911094761094 0 0 0.08973911094761093 55.15345252129921 21.98044018813328)"  >
<circle style="stroke: none; stroke-width: 0; stroke-dasharray: none; stroke-linecap: butt; stroke-dashoffset: 0; stroke-linejoin: miter; stroke-miterlimit: 4; fill: rgb(255,83,98); fill-rule: evenodd; opacity: 0.7;"  cx="0" cy="0" r="47.0059" />
</g>
		<g transform="matrix(0.19007688396989056 0 0 0.19007688396989056 71.66108815847704 6.423524467187805)"  >
<circle style="stroke: none; stroke-width: 0; stroke-dasharray: none; stroke-linecap: butt; stroke-dashoffset: 0; stroke-linejoin: miter; stroke-miterlimit: 4; fill: rgb(0,76,242); fill-rule: evenodd; opacity: 0.7;"  cx="0" cy="0" r="47.0059" />
</g>
		<g transform="matrix(0.09873329263926167 0 0 0.09873329263926167 -61.34997199317024 55.69043058397597)"  >
<circle style="stroke: none; stroke-width: 0; stroke-dasharray: none; stroke-linecap: butt; stroke-dashoffset: 0; stroke-linejoin: miter; stroke-miterlimit: 4; fill: rgb(251,165,54); fill-rule: evenodd; opacity: 0.7;"  cx="0" cy="0" r="47.0059" />
</g>
</g>
</g>
<g transform="matrix(1.1115625910789924 0 0 1.1115625910789924 252.76568690146325 203.73431309853675)"  >
<circle style="stroke: none; stroke-width: 0; stroke-dasharray: none; stroke-linecap: butt; stroke-dashoffset: 0; stroke-linejoin: miter; stroke-miterlimit: 4; fill: rgb(236,244,247); fill-rule: evenodd; opacity: 0.5;"  cx="0" cy="0" r="47.0059" />
</g>
<g transform="matrix(1.0208146870613428 0 0 1.0208146870613428 249.00000000000003 203.96862619707355)"  >
<circle style="stroke: none; stroke-width: 0; stroke-dasharray: none; stroke-linecap: butt; stroke-dashoffset: 0; stroke-linejoin: miter; stroke-miterlimit: 4; fill: rgb(25,52,65); fill-rule: evenodd; opacity: 1;"  cx="0" cy="0" r="47.0059" />
</g>
<g transform="matrix(1 0 0 1 247.499998203445 362.3745512279026)" style=""  ><path fill="#193441" opacity="0.5" d=""/><path fill="#193441" opacity="0.5" d="M-144.07 1.09L-144.07 1.09Q-144.87 1.09-145.48 0.28L-145.48 0.28L-146.91-1.58L-146.91 4.38Q-146.91 5.31-147.48 5.80Q-148.05 6.30-148.81 6.30L-148.81 6.30Q-149.60 6.30-150.17 5.81Q-150.75 5.33-150.75 4.38L-150.75 4.38L-150.75-5.74Q-150.75-6.21-150.58-6.60Q-150.41-6.99-150.13-7.24Q-149.86-7.50-149.49-7.64Q-149.12-7.78-148.73-7.78L-148.73-7.78Q-148.21-7.78-147.70-7.53Q-147.18-7.28-146.81-6.81L-146.81-6.81L-144.07-3.30L-141.32-6.81Q-140.95-7.28-140.44-7.53Q-139.94-7.78-139.42-7.78L-139.42-7.78Q-139.03-7.78-138.66-7.64Q-138.29-7.50-138.01-7.24Q-137.72-6.99-137.55-6.60Q-137.38-6.21-137.38-5.74L-137.38-5.74L-137.38 4.38Q-137.38 5.33-137.96 5.81Q-138.53 6.30-139.32 6.30L-139.32 6.30Q-140.09 6.30-140.66 5.81Q-141.22 5.33-141.22 4.38L-141.22 4.38L-141.22-1.58L-142.63 0.28Q-142.97 0.74-143.32 0.91Q-143.68 1.09-144.07 1.09Z"/><path fill="#193441" opacity="0.5" d="M-136.00-0.75L-136.00-0.75Q-136.00-2.23-135.44-3.52Q-134.89-4.81-133.92-5.78Q-132.95-6.75-131.66-7.30Q-130.37-7.86-128.89-7.86L-128.89-7.86Q-127.40-7.86-126.11-7.30Q-124.81-6.75-123.85-5.78Q-122.89-4.81-122.32-3.52Q-121.76-2.23-121.76-0.75L-121.76-0.75Q-121.76 0.74-122.32 2.02Q-122.89 3.31-123.85 4.28Q-124.81 5.25-126.11 5.80Q-127.40 6.36-128.89 6.36L-128.89 6.36Q-130.37 6.36-131.66 5.80Q-132.95 5.25-133.92 4.28Q-134.89 3.31-135.44 2.02Q-136.00 0.74-136.00-0.75ZM-132.10-0.69L-132.10-0.69Q-132.10-0.02-131.84 0.57Q-131.58 1.15-131.15 1.59Q-130.71 2.02-130.13 2.27Q-129.54 2.52-128.87 2.52L-128.87 2.52Q-128.20 2.52-127.61 2.27Q-127.03 2.02-126.58 1.59Q-126.14 1.15-125.88 0.57Q-125.62-0.02-125.62-0.69L-125.62-0.69Q-125.62-1.36-125.88-1.96Q-126.14-2.55-126.58-2.99Q-127.03-3.42-127.61-3.68Q-128.20-3.94-128.87-3.94L-128.87-3.94Q-129.54-3.94-130.13-3.68Q-130.71-3.42-131.15-2.99Q-131.58-2.55-131.84-1.96Q-132.10-1.36-132.10-0.69Z"/><path fill="#193441" opacity="0.5" d="M-113.29-1.44L-113.29-5.96Q-113.29-6.85-112.74-7.31Q-112.20-7.78-111.42-7.78L-111.42-7.78Q-110.69-7.78-110.15-7.31Q-109.60-6.85-109.60-5.96L-109.60-5.96L-109.60 4.38Q-109.60 4.83-109.76 5.19Q-109.92 5.55-110.17 5.79Q-110.41 6.04-110.74 6.17Q-111.07 6.30-111.42 6.30L-111.42 6.30Q-111.90 6.30-112.36 6.06Q-112.81 5.82-113.15 5.31L-113.15 5.31L-116.75-0.06L-116.75 4.48Q-116.75 5.37-117.30 5.83Q-117.84 6.30-118.61 6.30L-118.61 6.30Q-119.34 6.30-119.88 5.83Q-120.41 5.37-120.41 4.48L-120.41 4.48L-120.41-5.88Q-120.41-6.31-120.27-6.67Q-120.12-7.03-119.86-7.27Q-119.60-7.52-119.29-7.65Q-118.97-7.78-118.61-7.78L-118.61-7.78Q-118.12-7.78-117.66-7.55Q-117.21-7.32-116.87-6.81L-116.87-6.81L-113.29-1.44Z"/><path fill="#193441" opacity="0.5" d="M-104.18-5.88L-104.18 4.38Q-104.18 5.33-104.75 5.81Q-105.33 6.30-106.10 6.30L-106.10 6.30Q-106.89 6.30-107.45 5.81Q-108.02 5.33-108.02 4.38L-108.02 4.38L-108.02-5.88Q-108.02-6.79-107.45-7.28Q-106.89-7.78-106.10-7.78L-106.10-7.78Q-105.33-7.78-104.75-7.28Q-104.18-6.79-104.18-5.88L-104.18-5.88Z"/><path fill="#193441" opacity="0.5" d="M-95.94-3.84L-95.94 4.38Q-95.94 5.33-96.52 5.81Q-97.09 6.30-97.88 6.30L-97.88 6.30Q-98.65 6.30-99.22 5.81Q-99.78 5.33-99.78 4.38L-99.78 4.38L-99.78-3.84L-101.13-3.84Q-102.04-3.84-102.54-4.41Q-103.05-4.99-103.05-5.78L-103.05-5.78Q-103.05-6.57-102.54-7.15Q-102.04-7.72-101.13-7.72L-101.13-7.72L-94.63-7.72Q-93.72-7.72-93.21-7.15Q-92.69-6.57-92.69-5.78L-92.69-5.78Q-92.69-4.99-93.21-4.41Q-93.72-3.84-94.63-3.84L-94.63-3.84L-95.94-3.84Z"/><path fill="#193441" opacity="0.5" d="M-92.65-0.75L-92.65-0.75Q-92.65-2.23-92.10-3.52Q-91.55-4.81-90.58-5.78Q-89.60-6.75-88.32-7.30Q-87.03-7.86-85.55-7.86L-85.55-7.86Q-84.06-7.86-82.76-7.30Q-81.47-6.75-80.51-5.78Q-79.55-4.81-78.98-3.52Q-78.42-2.23-78.42-0.75L-78.42-0.75Q-78.42 0.74-78.98 2.02Q-79.55 3.31-80.51 4.28Q-81.47 5.25-82.76 5.80Q-84.06 6.36-85.55 6.36L-85.55 6.36Q-87.03 6.36-88.32 5.80Q-89.60 5.25-90.58 4.28Q-91.55 3.31-92.10 2.02Q-92.65 0.74-92.65-0.75ZM-88.75-0.69L-88.75-0.69Q-88.75-0.02-88.50 0.57Q-88.24 1.15-87.80 1.59Q-87.37 2.02-86.78 2.27Q-86.20 2.52-85.53 2.52L-85.53 2.52Q-84.85 2.52-84.27 2.27Q-83.68 2.02-83.24 1.59Q-82.79 1.15-82.54 0.57Q-82.28-0.02-82.28-0.69L-82.28-0.69Q-82.28-1.36-82.54-1.96Q-82.79-2.55-83.24-2.99Q-83.68-3.42-84.27-3.68Q-84.85-3.94-85.53-3.94L-85.53-3.94Q-86.20-3.94-86.78-3.68Q-87.37-3.42-87.80-2.99Q-88.24-2.55-88.50-1.96Q-88.75-1.36-88.75-0.69Z"/><path fill="#193441" opacity="0.5" d="M-70.14 5.31L-72.48 0.95Q-72.58 0.79-72.68 0.46Q-72.77 0.12-72.76-0.27L-72.76-0.27Q-72.76-1.03-72.36-1.47Q-71.96-1.92-71.27-1.92L-71.27-1.92L-70.99-1.92Q-70.50-1.92-70.20-2.20Q-69.90-2.47-69.90-3.07L-69.90-3.07Q-69.90-3.60-70.20-3.82Q-70.50-4.04-71.11-4.04L-71.11-4.04L-73.19-4.04L-73.19 4.24Q-73.19 6.22-75.11 6.22L-75.11 6.22Q-77.05 6.22-77.05 4.28L-77.05 4.28L-77.05-5.78Q-77.05-7.72-75.19-7.72L-75.19-7.72L-71.03-7.72Q-69.80-7.72-68.91-7.35Q-68.02-6.99-67.45-6.39Q-66.87-5.80-66.60-5.04Q-66.32-4.27-66.32-3.48L-66.32-3.48Q-66.32-2.06-67.00-1.07Q-67.69-0.08-68.66 0.32L-68.66 0.32L-66.82 3.21Q-66.44 3.88-66.44 4.40L-66.44 4.40Q-66.44 4.81-66.62 5.17Q-66.80 5.53-67.09 5.77Q-67.39 6.02-67.77 6.16Q-68.14 6.30-68.52 6.30L-68.52 6.30Q-68.97 6.30-69.42 6.06Q-69.86 5.82-70.14 5.31L-70.14 5.31Z"/><path fill="#193441" opacity="0.5" d="M-56.56 6.22L-63.09 6.22Q-64.99 6.22-64.99 4.28L-64.99 4.28L-64.99-5.78Q-64.99-7.72-63.09-7.72L-63.09-7.72L-56.56-7.72Q-55.65-7.72-55.14-7.15Q-54.64-6.57-54.64-5.78L-54.64-5.78Q-54.64-4.99-55.14-4.41Q-55.65-3.84-56.56-3.84L-56.56-3.84L-61.17-3.84L-61.17-2.51L-57.33-2.51Q-56.50-2.51-56.03-1.99Q-55.57-1.46-55.57-0.75L-55.57-0.75Q-55.57-0.04-56.03 0.49Q-56.50 1.01-57.33 1.01L-57.33 1.01L-61.17 1.01L-61.17 2.36L-56.56 2.36Q-55.65 2.36-55.14 2.92Q-54.64 3.49-54.64 4.28L-54.64 4.28Q-54.64 5.07-55.14 5.65Q-55.65 6.22-56.56 6.22L-56.56 6.22Z"/><path fill="#193441" opacity="0.5" d="M-53.31-0.75L-53.31-0.75Q-53.31-2.23-52.76-3.52Q-52.20-4.81-51.23-5.78Q-50.26-6.75-48.98-7.30Q-47.69-7.86-46.20-7.86L-46.20-7.86Q-44.72-7.86-43.42-7.30Q-42.12-6.75-41.16-5.78Q-40.20-4.81-39.64-3.52Q-39.08-2.23-39.08-0.75L-39.08-0.75Q-39.08 0.74-39.64 2.02Q-40.20 3.31-41.16 4.28Q-42.12 5.25-43.42 5.80Q-44.72 6.36-46.20 6.36L-46.20 6.36Q-47.69 6.36-48.98 5.80Q-50.26 5.25-51.23 4.28Q-52.20 3.31-52.76 2.02Q-53.31 0.74-53.31-0.75ZM-49.41-0.69L-49.41-0.69Q-49.41-0.02-49.15 0.57Q-48.90 1.15-48.46 1.59Q-48.02 2.02-47.44 2.27Q-46.86 2.52-46.18 2.52L-46.18 2.52Q-45.51 2.52-44.93 2.27Q-44.34 2.02-43.90 1.59Q-43.45 1.15-43.19 0.57Q-42.94-0.02-42.94-0.69L-42.94-0.69Q-42.94-1.36-43.19-1.96Q-43.45-2.55-43.90-2.99Q-44.34-3.42-44.93-3.68Q-45.51-3.94-46.18-3.94L-46.18-3.94Q-46.86-3.94-47.44-3.68Q-48.02-3.42-48.46-2.99Q-48.90-2.55-49.15-1.96Q-49.41-1.36-49.41-0.69Z"/><path fill="#193441" opacity="0.5" d=""/><path fill="#193441" opacity="0.5" d="M-33.10 4.28L-33.10-5.78Q-33.10-6.16-32.92-6.51Q-32.74-6.87-32.45-7.14Q-32.17-7.40-31.81-7.56Q-31.45-7.72-31.10-7.72L-31.10-7.72L-29.23-7.72Q-27.43-7.72-26.08-7.11Q-24.72-6.49-23.82-5.50Q-22.92-4.51-22.46-3.23Q-22.01-1.96-22.01-0.65L-22.01-0.65Q-22.01 0.66-22.44 1.88Q-22.88 3.11-23.75 4.08Q-24.62 5.05-25.91 5.64Q-27.20 6.22-28.92 6.22L-28.92 6.22L-31.10 6.22Q-32.01 6.22-32.55 5.71Q-33.10 5.19-33.10 4.28L-33.10 4.28ZM-29.25 2.36L-28.90 2.36Q-28.15 2.36-27.56 2.08Q-26.98 1.80-26.59 1.36Q-26.21 0.91-26.01 0.33Q-25.81-0.25-25.81-0.85L-25.81-0.85Q-25.81-1.40-26.00-1.93Q-26.19-2.45-26.56-2.87Q-26.94-3.28-27.53-3.54Q-28.13-3.80-28.92-3.80L-28.92-3.80L-29.25-3.80L-29.25 2.36Z"/><path fill="#193441" opacity="0.5" d="M-12.29 6.22L-18.82 6.22Q-20.72 6.22-20.72 4.28L-20.72 4.28L-20.72-5.78Q-20.72-7.72-18.82-7.72L-18.82-7.72L-12.29-7.72Q-11.38-7.72-10.87-7.15Q-10.37-6.57-10.37-5.78L-10.37-5.78Q-10.37-4.99-10.87-4.41Q-11.38-3.84-12.29-3.84L-12.29-3.84L-16.90-3.84L-16.90-2.51L-13.06-2.51Q-12.23-2.51-11.76-1.99Q-11.30-1.46-11.30-0.75L-11.30-0.75Q-11.30-0.04-11.76 0.49Q-12.23 1.01-13.06 1.01L-13.06 1.01L-16.90 1.01L-16.90 2.36L-12.29 2.36Q-11.38 2.36-10.87 2.92Q-10.37 3.49-10.37 4.28L-10.37 4.28Q-10.37 5.07-10.87 5.65Q-11.38 6.22-12.29 6.22L-12.29 6.22Z"/><path fill="#193441" opacity="0.5" d=""/><path fill="#193441" opacity="0.5" d="M3.87-3.80L2.47-3.80Q1.65-3.80 1.06-3.54Q0.47-3.28 0.06-2.86Q-0.35-2.43-0.54-1.88Q-0.74-1.32-0.74-0.75L-0.74-0.75Q-0.74-0.16-0.54 0.41Q-0.35 0.97 0.06 1.40Q0.47 1.82 1.06 2.09Q1.65 2.36 2.45 2.36L2.45 2.36L3.87 2.36Q4.37 2.36 4.72 2.53Q5.08 2.70 5.32 2.96Q5.55 3.23 5.67 3.58Q5.79 3.92 5.79 4.28L5.79 4.28Q5.79 5.05 5.32 5.64Q4.84 6.22 3.87 6.22L3.87 6.22L2.47 6.22Q0.74 6.22-0.56 5.64Q-1.87 5.05-2.73 4.08Q-3.59 3.11-4.03 1.88Q-4.46 0.66-4.46-0.65L-4.46-0.65Q-4.46-1.96-4.02-3.23Q-3.57-4.51-2.66-5.50Q-1.75-6.49-0.41-7.11Q0.94-7.72 2.76-7.72L2.76-7.72L3.87-7.72Q4.35-7.72 4.71-7.55Q5.08-7.38 5.33-7.11Q5.57-6.83 5.70-6.48Q5.83-6.14 5.83-5.76L5.83-5.76Q5.83-5.38 5.70-5.03Q5.57-4.67 5.33-4.40Q5.08-4.14 4.71-3.97Q4.35-3.80 3.87-3.80L3.87-3.80Z"/><path fill="#193441" opacity="0.5" d="M13.30-2.02L12.29 0.50L14.15 0.50L13.30-2.02ZM15.75 5.05L15.20 3.53L11.08 3.53L10.46 5.05Q10.19 5.69 9.73 5.99Q9.28 6.30 8.78 6.30L8.78 6.30Q8.39 6.30 8.02 6.17Q7.65 6.04 7.36 5.80Q7.06 5.57 6.88 5.23Q6.70 4.89 6.70 4.48L6.70 4.48Q6.70 4.00 6.84 3.71L6.84 3.71L11.55-6.63Q11.79-7.15 12.17-7.46Q12.54-7.78 13.34-7.78L13.34-7.78Q14.09-7.78 14.47-7.46Q14.86-7.15 15.08-6.61L15.08-6.61L19.37 3.71Q19.51 4.06 19.51 4.48L19.51 4.48Q19.51 4.87 19.33 5.21Q19.16 5.55 18.87 5.78Q18.58 6.02 18.21 6.16Q17.83 6.30 17.45 6.30L17.45 6.30Q16.86 6.30 16.41 5.99Q15.97 5.69 15.75 5.05L15.75 5.05Z"/><path fill="#193441" opacity="0.5" d="M26.58 6.22L22.62 6.22Q20.72 6.22 20.72 4.28L20.72 4.28L20.72-5.88Q20.72-6.79 21.28-7.28Q21.85-7.78 22.62-7.78L22.62-7.78Q23.39-7.78 23.97-7.28Q24.54-6.79 24.54-5.88L24.54-5.88L24.54 2.36L26.58 2.36Q27.47 2.36 27.94 2.92Q28.40 3.49 28.40 4.28L28.40 4.28Q28.40 5.07 27.94 5.65Q27.47 6.22 26.58 6.22L26.58 6.22Z"/><path fill="#193441" opacity="0.5" d="M33.25-5.88L33.25 4.38Q33.25 5.33 32.68 5.81Q32.11 6.30 31.33 6.30L31.33 6.30Q30.54 6.30 29.98 5.81Q29.41 5.33 29.41 4.38L29.41 4.38L29.41-5.88Q29.41-6.79 29.98-7.28Q30.54-7.78 31.33-7.78L31.33-7.78Q32.11-7.78 32.68-7.28Q33.25-6.79 33.25-5.88L33.25-5.88Z"/><path fill="#193441" opacity="0.5" d="M34.86 4.28L34.86-5.78Q34.86-6.16 35.04-6.51Q35.21-6.87 35.50-7.14Q35.79-7.40 36.14-7.56Q36.50-7.72 36.86-7.72L36.86-7.72L38.72-7.72Q40.52-7.72 41.88-7.11Q43.23-6.49 44.13-5.50Q45.04-4.51 45.49-3.23Q45.95-1.96 45.95-0.65L45.95-0.65Q45.95 0.66 45.51 1.88Q45.07 3.11 44.20 4.08Q43.33 5.05 42.05 5.64Q40.76 6.22 39.04 6.22L39.04 6.22L36.86 6.22Q35.95 6.22 35.40 5.71Q34.86 5.19 34.86 4.28L34.86 4.28ZM38.70 2.36L39.06 2.36Q39.81 2.36 40.39 2.08Q40.98 1.80 41.36 1.36Q41.75 0.91 41.95 0.33Q42.14-0.25 42.14-0.85L42.14-0.85Q42.14-1.40 41.96-1.93Q41.77-2.45 41.39-2.87Q41.02-3.28 40.42-3.54Q39.83-3.80 39.04-3.80L39.04-3.80L38.70-3.80L38.70 2.36Z"/><path fill="#193441" opacity="0.5" d="M53.39-2.02L52.38 0.50L54.24 0.50L53.39-2.02ZM55.85 5.05L55.29 3.53L51.17 3.53L50.56 5.05Q50.28 5.69 49.83 5.99Q49.37 6.30 48.88 6.30L48.88 6.30Q48.48 6.30 48.11 6.17Q47.75 6.04 47.45 5.80Q47.15 5.57 46.98 5.23Q46.80 4.89 46.80 4.48L46.80 4.48Q46.80 4.00 46.94 3.71L46.94 3.71L51.65-6.63Q51.89-7.15 52.26-7.46Q52.64-7.78 53.43-7.78L53.43-7.78Q54.18-7.78 54.57-7.46Q54.95-7.15 55.17-6.61L55.17-6.61L59.47 3.71Q59.61 4.06 59.61 4.48L59.61 4.48Q59.61 4.87 59.43 5.21Q59.25 5.55 58.96 5.78Q58.68 6.02 58.30 6.16Q57.92 6.30 57.55 6.30L57.55 6.30Q56.95 6.30 56.51 5.99Q56.06 5.69 55.85 5.05L55.85 5.05Z"/><path fill="#193441" opacity="0.5" d="M60.82 4.28L60.82-5.78Q60.82-6.16 60.99-6.51Q61.17-6.87 61.46-7.14Q61.75-7.40 62.10-7.56Q62.46-7.72 62.82-7.72L62.82-7.72L64.68-7.72Q66.48-7.72 67.83-7.11Q69.19-6.49 70.09-5.50Q70.99-4.51 71.45-3.23Q71.90-1.96 71.90-0.65L71.90-0.65Q71.90 0.66 71.47 1.88Q71.03 3.11 70.16 4.08Q69.29 5.05 68.00 5.64Q66.72 6.22 64.99 6.22L64.99 6.22L62.82 6.22Q61.90 6.22 61.36 5.71Q60.82 5.19 60.82 4.28L60.82 4.28ZM64.66 2.36L65.01 2.36Q65.77 2.36 66.35 2.08Q66.93 1.80 67.32 1.36Q67.71 0.91 67.90 0.33Q68.10-0.25 68.10-0.85L68.10-0.85Q68.10-1.40 67.91-1.93Q67.73-2.45 67.35-2.87Q66.97-3.28 66.38-3.54Q65.79-3.80 64.99-3.80L64.99-3.80L64.66-3.80L64.66 2.36Z"/><path fill="#193441" opacity="0.5" d=""/><path fill="#193441" opacity="0.5" d="M77.82 4.28L77.82-5.78Q77.82-6.16 78.00-6.51Q78.18-6.87 78.47-7.14Q78.75-7.40 79.11-7.56Q79.47-7.72 79.82-7.72L79.82-7.72L81.68-7.72Q83.49-7.72 84.84-7.11Q86.20-6.49 87.10-5.50Q88.00-4.51 88.46-3.23Q88.91-1.96 88.91-0.65L88.91-0.65Q88.91 0.66 88.48 1.88Q88.04 3.11 87.17 4.08Q86.30 5.05 85.01 5.64Q83.72 6.22 82.00 6.22L82.00 6.22L79.82 6.22Q78.91 6.22 78.37 5.71Q77.82 5.19 77.82 4.28L77.82 4.28ZM81.67 2.36L82.02 2.36Q82.77 2.36 83.36 2.08Q83.94 1.80 84.33 1.36Q84.71 0.91 84.91 0.33Q85.11-0.25 85.11-0.85L85.11-0.85Q85.11-1.40 84.92-1.93Q84.73-2.45 84.36-2.87Q83.98-3.28 83.39-3.54Q82.79-3.80 82.00-3.80L82.00-3.80L81.67-3.80L81.67 2.36Z"/><path fill="#193441" opacity="0.5" d="M98.63 6.22L92.10 6.22Q90.20 6.22 90.20 4.28L90.20 4.28L90.20-5.78Q90.20-7.72 92.10-7.72L92.10-7.72L98.63-7.72Q99.54-7.72 100.05-7.15Q100.55-6.57 100.55-5.78L100.55-5.78Q100.55-4.99 100.05-4.41Q99.54-3.84 98.63-3.84L98.63-3.84L94.02-3.84L94.02-2.51L97.86-2.51Q98.69-2.51 99.16-1.99Q99.62-1.46 99.62-0.75L99.62-0.75Q99.62-0.04 99.16 0.49Q98.69 1.01 97.86 1.01L97.86 1.01L94.02 1.01L94.02 2.36L98.63 2.36Q99.54 2.36 100.05 2.92Q100.55 3.49 100.55 4.28L100.55 4.28Q100.55 5.07 100.05 5.65Q99.54 6.22 98.63 6.22L98.63 6.22Z"/><path fill="#193441" opacity="0.5" d=""/><path fill="#193441" opacity="0.5" d="M112.91-2.02L111.90 0.50L113.76 0.50L112.91-2.02ZM115.36 5.05L114.81 3.53L110.69 3.53L110.08 5.05Q109.80 5.69 109.35 5.99Q108.89 6.30 108.40 6.30L108.40 6.30Q108.00 6.30 107.63 6.17Q107.27 6.04 106.97 5.80Q106.67 5.57 106.49 5.23Q106.32 4.89 106.32 4.48L106.32 4.48Q106.32 4.00 106.45 3.71L106.45 3.71L111.17-6.63Q111.40-7.15 111.78-7.46Q112.16-7.78 112.95-7.78L112.95-7.78Q113.70-7.78 114.09-7.46Q114.47-7.15 114.69-6.61L114.69-6.61L118.99 3.71Q119.13 4.06 119.13 4.48L119.13 4.48Q119.13 4.87 118.95 5.21Q118.77 5.55 118.48 5.78Q118.20 6.02 117.82 6.16Q117.44 6.30 117.07 6.30L117.07 6.30Q116.47 6.30 116.03 5.99Q115.58 5.69 115.36 5.05L115.36 5.05Z"/><path fill="#193441" opacity="0.5" d="M129.68 0.04L129.68 4.28Q129.68 5.23 129.12 5.72Q128.55 6.22 127.72 6.22L127.72 6.22L126.31 6.22Q124.59 6.22 123.28 5.64Q121.98 5.05 121.12 4.08Q120.26 3.11 119.82 1.88Q119.38 0.66 119.38-0.65L119.38-0.65Q119.38-2.08 119.83-3.36Q120.28-4.65 121.19-5.62Q122.10-6.59 123.44-7.15Q124.79-7.72 126.61-7.72L126.61-7.72L127.72-7.72Q128.20-7.72 128.56-7.55Q128.93-7.38 129.18-7.11Q129.42-6.83 129.55-6.48Q129.68-6.14 129.68-5.76L129.68-5.76Q129.68-5.38 129.55-5.03Q129.42-4.67 129.18-4.40Q128.93-4.14 128.56-3.97Q128.20-3.80 127.72-3.80L127.72-3.80L126.31-3.80Q125.50-3.80 124.91-3.54Q124.31-3.28 123.91-2.86Q123.50-2.43 123.30-1.88Q123.11-1.32 123.11-0.75L123.11-0.75Q123.11-0.16 123.26 0.39Q123.42 0.93 123.77 1.36Q124.12 1.78 124.64 2.04Q125.17 2.30 125.90 2.34L125.90 2.34L125.90 0.04Q125.90-0.85 126.46-1.34Q127.03-1.84 127.78-1.84L127.78-1.84Q128.55-1.84 129.12-1.34Q129.68-0.85 129.68 0.04L129.68 0.04Z"/><path fill="#193441" opacity="0.5" d="M142.45-5.88L142.45 0.24Q142.45 6.36 136.85 6.36L136.85 6.36Q131.17 6.36 131.17 0.24L131.17 0.24L131.17-5.88Q131.17-6.79 131.74-7.28Q132.31-7.78 133.09-7.78L133.09-7.78Q133.88-7.78 134.44-7.28Q135.01-6.79 135.01-5.88L135.01-5.88L135.01 0.83Q135.01 2.54 136.81 2.54L136.81 2.54Q138.61 2.54 138.61 0.83L138.61 0.83L138.61-5.88Q138.61-6.33 138.77-6.69Q138.93-7.05 139.18-7.28Q139.44-7.52 139.79-7.65Q140.13-7.78 140.51-7.78L140.51-7.78Q141.30-7.78 141.88-7.28Q142.45-6.79 142.45-5.88L142.45-5.88Z"/><path fill="#193441" opacity="0.5" d="M149.56-2.02L148.55 0.50L150.41 0.50L149.56-2.02ZM152.01 5.05L151.46 3.53L147.34 3.53L146.73 5.05Q146.45 5.69 146.00 5.99Q145.54 6.30 145.04 6.30L145.04 6.30Q144.65 6.30 144.28 6.17Q143.92 6.04 143.62 5.80Q143.32 5.57 143.14 5.23Q142.97 4.89 142.97 4.48L142.97 4.48Q142.97 4.00 143.10 3.71L143.10 3.71L147.82-6.63Q148.05-7.15 148.43-7.46Q148.81-7.78 149.60-7.78L149.60-7.78Q150.35-7.78 150.74-7.46Q151.12-7.15 151.34-6.61L151.34-6.61L155.64 3.71Q155.78 4.06 155.78 4.48L155.78 4.48Q155.78 4.87 155.60 5.21Q155.42 5.55 155.13 5.78Q154.85 6.02 154.47 6.16Q154.09 6.30 153.72 6.30L153.72 6.30Q153.12 6.30 152.68 5.99Q152.23 5.69 152.01 5.05L152.01 5.05Z"/></g><g transform="matrix(1.0208146870613428 0 0 1.0208146870613428 248.50000000000003 198.96862619707358)"  >
<circle style="stroke: none; stroke-width: 0; stroke-dasharray: none; stroke-linecap: butt; stroke-dashoffset: 0; stroke-linejoin: miter; stroke-miterlimit: 4; fill: rgb(25,52,65); fill-rule: evenodd; opacity: 0.2;"  cx="0" cy="0" r="47.0059" />
</g>
<g transform="matrix(1.1774289189707399 0 0 1.1774289189707399 249.99999999999997 201.96862619707355)"  >
<path style="stroke: none; stroke-width: 0; stroke-dasharray: none; stroke-linecap: butt; stroke-dashoffset: 0; stroke-linejoin: miter; stroke-miterlimit: 4; fill: rgb(236,244,247); fill-rule: nonzero; opacity: 0.19;"  transform=" translate(-50.000000050000004, -1002.3621800000001)" d="m 50 957.36216 c -24.81727 0 -44.9999999 20.18283 -44.9999999 45.00004 c 0 24.8171 20.1827299 45 44.9999999 45 c 24.81727 0 45 -20.1829 45 -45 c 0 -24.81721 -20.18273 -45.00004 -45 -45.00004 z m 0 6 c 21.57461 0 39 17.42549 39 39.00004 c 0 21.5745 -17.42539 39 -39 39 c -21.57461 0 -39 -17.4255 -39 -39 c 0 -21.57455 17.42539 -39.00004 39 -39.00004 z" stroke-linecap="round" />
</g>
<g transform="matrix(0.5696150941048942 0 0 0.5696150941048942 250 203.96862619707355)"  >
<path style="stroke: none; stroke-width: 0; stroke-dasharray: none; stroke-linecap: butt; stroke-dashoffset: 0; stroke-linejoin: miter; stroke-miterlimit: 4; fill: rgb(236,244,247); fill-rule: nonzero; opacity: 1;"  transform=" translate(-49.95548184267945, -50.452785)" d="m 98.988 71.816 l -14.039 -60.199 c -0.10156 -0.60547 -0.70703 -1.1094 -1.3125 -1.2109 l -81.113 -7.8828 c -0.40234 0 -0.90625 0.10156 -1.2109 0.50781 c -0.30078 0.40234 -0.50391 0.80859 -0.40234 1.3125 l 13.637 78.484 c 0.10156 0.70703 0.80859 1.2109 1.5156 1.2109 h 0.20312 l 14.746 -1.918 v 7.5742 c 0 0.60547 0.30469 1.1094 0.91016 1.4141 l 15.859 7.1719 c 0.20312 0.10156 0.40234 0.10156 0.60547 0.10156 h 0.30469 l 23.938 -4.7461 c 0.70703 -0.10156 1.2109 -0.70703 1.2109 -1.4141 c 0 -0.70703 -0.40234 -1.3125 -1.1094 -1.5156 l -19.09 -5.9609 l 0.10156 -5.5547 l 43.938 -5.6562 c 0.40234 -0.10156 0.80859 -0.30469 1.0117 -0.60547 c 0.29688 -0.30469 0.39844 -0.70703 0.29688 -1.1133 z m -93.734 -60.402 l 77.98 6.4648 l 10.504 44.746 l -78.383 6.5664 z m 76.969 1.918 l 0.70703 2.9297 l -77.98 -6.3633 l -0.70703 -4.1406 z m -16.062 78.484 l -17.574 3.5352 l -12.121 -5.4531 l 15.152 -2.5234 z m -15.555 -5.8555 l -16.566 2.7266 v -6.9688 l 16.668 -2.1211 l -0.10156 6.3633 v 0 z m -33.332 -5.1523 l -1.7188 -10.102 l 78.484 -6.5664 l 1.6172 6.7695 z" stroke-linecap="round" />
</g>
</svg>